<?xml version="1.0" encoding="UTF-8" standalone="no"?>
<!-- Created with Inkscape (http://www.inkscape.org/) -->

<svg
   width="2000"
   height="1400"
   viewBox="0 0 529.16667 370.41667"
   version="1.1"
   id="svg1"
   inkscape:version="1.3.2 (091e20e, 2023-11-25, custom)"
   sodipodi:docname="Mockup.svg"
   xml:space="preserve"
   xmlns:inkscape="http://www.inkscape.org/namespaces/inkscape"
   xmlns:sodipodi="http://sodipodi.sourceforge.net/DTD/sodipodi-0.dtd"
   xmlns="http://www.w3.org/2000/svg"
   xmlns:svg="http://www.w3.org/2000/svg"><sodipodi:namedview
     id="namedview1"
     pagecolor="#ffffff"
     bordercolor="#666666"
     borderopacity="1.0"
     inkscape:showpageshadow="2"
     inkscape:pageopacity="0.0"
     inkscape:pagecheckerboard="0"
     inkscape:deskcolor="#d1d1d1"
     inkscape:document-units="px"
     showgrid="true"
     inkscape:zoom="1"
     inkscape:cx="1006"
     inkscape:cy="625"
     inkscape:window-width="3840"
     inkscape:window-height="2054"
     inkscape:window-x="-11"
     inkscape:window-y="-11"
     inkscape:window-maximized="1"
     inkscape:current-layer="layer1"><inkscape:grid
       id="grid1"
       units="px"
       originx="0"
       originy="0"
       spacingx="1.0583333"
       spacingy="1.0583333"
       empcolor="#0099e5"
       empopacity="0.30196078"
       color="#0099e5"
       opacity="0.14901961"
       empspacing="5"
       dotted="false"
       gridanglex="30"
       gridanglez="30"
       visible="true" /></sodipodi:namedview><defs
     id="defs1"><rect
       x="1399.9999"
       y="219.99999"
       width="139.99999"
       height="139.99999"
       id="rect40" /><rect
       x="159.99999"
       y="1359.9999"
       width="182.00001"
       height="40.000269"
       id="rect32" /><rect
       x="25.000001"
       y="150.00001"
       width="1950.0001"
       height="1200.0001"
       id="rect11" /><rect
       x="25.000001"
       y="150.00001"
       width="1950.0001"
       height="1200.0001"
       id="rect10" /><rect
       x="825.00004"
       y="14.714942"
       width="40.584777"
       height="60.285065"
       id="rect5" /><rect
       x="800.00004"
       y="14.714942"
       width="450.00002"
       height="110.28506"
       id="rect4" /><rect
       x="800.00004"
       y="14.714942"
       width="450.00002"
       height="110.28506"
       id="rect8" /><rect
       x="800.00004"
       y="14.714942"
       width="450.00002"
       height="110.28506"
       id="rect9" /><rect
       x="800.00004"
       y="14.714942"
       width="450.00002"
       height="110.28506"
       id="rect16" /><rect
       x="800.00004"
       y="14.714942"
       width="450.00002"
       height="110.28506"
       id="rect19" /><rect
       x="800.00004"
       y="14.714942"
       width="450.00002"
       height="110.28506"
       id="rect20" /><rect
       x="800.00004"
       y="14.714942"
       width="450.00002"
       height="110.28506"
       id="rect38" /><rect
       x="800.00004"
       y="14.714942"
       width="450.00002"
       height="110.28506"
       id="rect39" /><rect
       x="1399.9999"
       y="219.99999"
       width="139.99999"
       height="139.99999"
       id="rect41" /><rect
       x="1399.9999"
       y="219.99999"
       width="139.99999"
       height="139.99999"
       id="rect42" /><rect
       x="1399.9999"
       y="219.99999"
       width="139.99999"
       height="139.99999"
       id="rect43" /><rect
       x="1399.9999"
       y="219.99999"
       width="139.99999"
       height="139.99999"
       id="rect44" /><rect
       x="1399.9999"
       y="219.99999"
       width="139.99999"
       height="139.99999"
       id="rect45" /></defs><g
     inkscape:label="Ebene 1"
     inkscape:groupmode="layer"
     id="layer1"><rect
       style="fill:#282828;stroke:none;stroke-width:1;stroke-linecap:round;stroke-linejoin:round;fill-opacity:1"
       id="rect1"
       width="529.16669"
       height="370.41672"
       x="0"
       y="0"
       rx="2.6458333"
       ry="2.6458333" /><rect
       style="fill:#665c54;fill-opacity:1;stroke:none;stroke-width:0.264583;stroke-linecap:round;stroke-linejoin:round;stroke-dasharray:none;stroke-opacity:1"
       id="rect22"
       width="365.12494"
       height="9.524991"
       x="0"
       y="177.79999" /><rect
       style="fill:#3c3836;fill-opacity:1;stroke:none;stroke-width:1;stroke-linecap:round;stroke-linejoin:round"
       id="rect2"
       width="529.16663"
       height="21.166666"
       x="-1.7763568e-15"
       y="0" /><rect
       style="fill:#3c3836;fill-opacity:1;stroke:none;stroke-width:1;stroke-linecap:round;stroke-linejoin:round"
       id="rect3"
       width="529.16669"
       height="10.583343"
       x="0"
       y="359.83331" /><text
       xml:space="preserve"
       transform="matrix(0.26458334,0,0,0.26458334,32.405412,1.9812827)"
       id="text3"
       style="font-style:normal;font-variant:normal;font-weight:normal;font-stretch:normal;font-size:32px;line-height:1.25;font-family:Inter;-inkscape-font-specification:Inter;white-space:pre;shape-inside:url(#rect4);display:inline;fill:#ebdbb2;fill-opacity:1"><tspan
         x="800"
         y="44.329867"
         id="tspan12">math.theo</tspan></text><text
       xml:space="preserve"
       transform="scale(0.26458334)"
       id="text4"
       style="font-size:6px;line-height:1.25;font-family:sans-serif;white-space:pre;shape-inside:url(#rect5);display:inline" /><rect
       style="fill:#504945;fill-opacity:1;stroke:none;stroke-width:1;stroke-linecap:round;stroke-linejoin:round"
       id="rect7"
       width="7.7003889e-12"
       height="6.614584"
       x="529.16669"
       y="19.843752"
       rx="2.6458337"
       ry="2.6458337" /><text
       xml:space="preserve"
       transform="matrix(0.26458334,0,0,0.26458334,-159.27917,21.145627)"
       id="text8"
       style="font-style:normal;font-variant:normal;font-weight:normal;font-stretch:normal;font-size:24px;line-height:1.25;font-family:Inter;-inkscape-font-specification:Inter;white-space:pre;shape-inside:url(#rect9);display:inline;fill:#bdae93;fill-opacity:1"><tspan
         x="800"
         y="36.926111"
         id="tspan33">main.theo</tspan></text><text
       xml:space="preserve"
       transform="scale(0.26458334)"
       id="text9"
       style="font-style:normal;font-variant:normal;font-weight:normal;font-stretch:normal;font-size:28px;line-height:1.25;font-family:'JetBrains Mono';-inkscape-font-specification:'JetBrains Mono';white-space:pre;shape-inside:url(#rect10);display:inline" /><text
       xml:space="preserve"
       transform="matrix(0.26458334,0,0,0.26458334,3.9687493,0.62537491)"
       id="text10"
       style="font-style:normal;font-variant:normal;font-weight:normal;font-stretch:normal;font-size:28px;line-height:40px;font-family:'JetBrains Mono';-inkscape-font-specification:'JetBrains Mono';white-space:pre;shape-inside:url(#rect11);display:inline;fill:#ebdbb2;fill-opacity:1"><tspan
         x="25"
         y="177.63636"
         id="tspan34">   1 # OUT is optional and defaults to x0 if not specified
</tspan><tspan
         x="25"
         y="217.63636"
         id="tspan35">   2 PROGRAM + IN x0, x1 DO
</tspan><tspan
         x="25"
         y="257.63636"
         id="tspan36">   3 	 LOOP x1 DO
</tspan><tspan
         x="25"
         y="297.63636"
         id="tspan37">   4		 x0 := x0 + 1
</tspan><tspan
         x="25"
         y="337.63636"
         id="tspan38">   5 	 END
</tspan><tspan
         x="25"
         y="377.63636"
         id="tspan39">   6 	 # x0 implicitly treated as return value
</tspan><tspan
         x="25"
         y="417.63636"
         id="tspan40">   7 END
</tspan><tspan
         x="25"
         y="457.63636"
         id="tspan41">   8
</tspan><tspan
         x="25"
         y="497.63636"
         id="tspan42">   9 # this is a function where a different variable (x2) is used to return values
</tspan><tspan
         x="25"
         y="537.63636"
         id="tspan43">  10 PROGRAM * IN x0, x1 OUT x2 DO
</tspan><tspan
         x="25"
         y="577.63636"
         id="tspan44">  11 	 LOOP x1 DO
</tspan><tspan
         x="25"
         y="617.63636"
         id="tspan45">  12 		  # &quot;+&quot; is used as infix operator (defined by above function)
</tspan><tspan
         x="25"
         y="657.63636"
         id="tspan46">  13 		  # c-style syntax would look like: x2 := +(x2, x0)
</tspan><tspan
         x="25"
         y="697.63636"
         id="tspan47">  14 		  x2 := x2 + x0 
</tspan><tspan
         x="25"
         y="737.63636"
         id="tspan48">  15 	 END
</tspan><tspan
         x="25"
         y="777.63636"
         id="tspan49">  16 END</tspan></text><ellipse
       style="fill:#cc241d;fill-opacity:1;stroke:none;stroke-width:0.999993;stroke-linecap:round;stroke-linejoin:round"
       id="path11"
       cx="13.229166"
       cy="182.5625"
       rx="2.6458333"
       ry="2.645833" /><rect
       style="fill:#3c3836;fill-opacity:1;stroke:none;stroke-width:1.08278;stroke-linecap:round;stroke-linejoin:round"
       id="rect13"
       width="164.04169"
       height="359.83078"
       x="365.12503"
       y="3.1554436e-30" /><path
       style="fill:none;stroke:#928374;stroke-width:0.219779;stroke-linecap:butt;stroke-linejoin:miter;stroke-dasharray:none;stroke-opacity:1"
       d="M 0,37.041665 H 365.12497"
       id="path14"
       sodipodi:nodetypes="cc" /><rect
       style="fill:#d65d0e;fill-opacity:1;stroke:none;stroke-width:1.07417;stroke-linecap:round;stroke-linejoin:round"
       id="rect14"
       width="47.624996"
       height="1.0583311"
       x="0"
       y="35.983334" /><path
       style="fill:none;stroke:#282828;stroke-width:0.147313;stroke-linecap:butt;stroke-linejoin:miter;stroke-dasharray:none;stroke-opacity:1"
       d="M 365.12498,21.166666 H 529.16664"
       id="path15"
       sodipodi:nodetypes="cc" /><path
       style="fill:none;stroke:#282828;stroke-width:0.147313;stroke-linecap:butt;stroke-linejoin:miter;stroke-dasharray:none;stroke-opacity:1"
       d="M 365.12497,359.83078 H 529.16663"
       id="path16"
       sodipodi:nodetypes="cc" /><rect
       style="fill:#458588;fill-opacity:1;stroke:none;stroke-width:0.264583;stroke-linecap:round;stroke-linejoin:round;stroke-dasharray:none;stroke-opacity:1"
       id="rect17"
       width="42.333332"
       height="10.583334"
       x="0"
       y="359.83331" /><text
       xml:space="preserve"
       transform="matrix(0.26458334,0,0,0.26458334,-201.84702,357.65502)"
       id="text16"
       style="font-style:normal;font-variant:normal;font-weight:500;font-stretch:normal;font-size:24px;line-height:1.25;font-family:Inter;-inkscape-font-specification:'Inter Medium';white-space:pre;shape-inside:url(#rect16);display:inline;fill:#282828;fill-opacity:1"><tspan
         x="800"
         y="36.926111"
         id="tspan50">INSERT</tspan></text><rect
       style="fill:#458588;fill-opacity:1;stroke:none;stroke-width:0.229136;stroke-linecap:round;stroke-linejoin:round;stroke-dasharray:none;stroke-opacity:1"
       id="rect18"
       width="31.750004"
       height="10.583334"
       x="497.41663"
       y="359.83331" /><text
       xml:space="preserve"
       transform="matrix(0.26458334,0,0,0.26458334,295.16785,357.63247)"
       id="text18"
       style="font-style:normal;font-variant:normal;font-weight:500;font-stretch:normal;font-size:24px;line-height:1.25;font-family:Inter;-inkscape-font-specification:'Inter Medium';white-space:pre;shape-inside:url(#rect19);display:inline;fill:#282828;fill-opacity:1"><tspan
         x="800"
         y="36.926111"
         id="tspan51">15:4</tspan></text><rect
       style="fill:#665c54;fill-opacity:1;stroke:none;stroke-width:0.229136;stroke-linecap:round;stroke-linejoin:round;stroke-dasharray:none;stroke-opacity:1"
       id="rect21"
       width="31.750004"
       height="10.583334"
       x="465.66666"
       y="359.83331" /><text
       xml:space="preserve"
       transform="matrix(0.26458334,0,0,0.26458334,260.05797,357.65727)"
       id="text19"
       style="font-style:normal;font-variant:normal;font-weight:normal;font-stretch:normal;font-size:24px;line-height:1.25;font-family:Inter;-inkscape-font-specification:Inter;white-space:pre;shape-inside:url(#rect20);display:inline;fill:#ebdbb2;fill-opacity:1"><tspan
         x="800"
         y="36.926111"
         id="tspan52">UTF-8</tspan></text><path
       style="fill:none;stroke:#ebdbb2;stroke-width:0.264583px;stroke-linecap:butt;stroke-linejoin:miter;stroke-opacity:1"
       d="m 46.070572,188.38333 v 9.525"
       id="path21" /><g
       id="g21"
       transform="translate(-1.2252041,0.15183641)"><text
         xml:space="preserve"
         transform="matrix(0.26458334,0,0,0.26458334,-205.31667,20.921631)"
         id="text7"
         style="font-style:normal;font-variant:normal;font-weight:normal;font-stretch:normal;font-size:24px;line-height:1.25;font-family:Inter;-inkscape-font-specification:Inter;white-space:pre;shape-inside:url(#rect8);display:inline;fill:#ebdbb2;fill-opacity:1"><tspan
           x="800"
           y="36.926111"
           id="tspan53">math.theo</tspan></text><path
         fill="none"
         stroke="currentColor"
         stroke-linecap="round"
         stroke-linejoin="round"
         stroke-width="0.330729"
         d="M 43.072964,30.227892 40.75786,27.912788 m 2.315104,0 -2.315104,2.315104"
         id="path1"
         style="stroke:#928374;stroke-opacity:1" /></g><path
       style="fill:none;stroke:#928374;stroke-width:0.147313;stroke-linecap:butt;stroke-linejoin:miter;stroke-dasharray:none;stroke-opacity:1"
       d="M 365.12497,37.041665 H 529.16663"
       id="path22"
       sodipodi:nodetypes="cc" /><g
       id="g23"
       transform="matrix(0.07812499,0,0,0.07812499,468.89125,6.945312)"><rect
         style="fill:#3c3836;fill-opacity:1;stroke:none;stroke-width:0.264583;stroke-linecap:round;stroke-linejoin:round;stroke-dasharray:none;stroke-opacity:1"
         id="rect23"
         width="135.46667"
         height="135.46667"
         x="26.458332"
         y="-21.166666"
         rx="12.095241"
         ry="12.095241" /><path
         d="M 56.070061,8.2020844 V 84.931258 c 0,4.61433 4.49791,7.54591 8.20208,5.334 l 65.590209,-39.25623 c 3.20675,-1.91823 3.20675,-6.966484 0,-8.884714 L 64.272141,2.8680844 c -3.70417,-2.21191003 -8.20208,0.71967 -8.20208,5.334 z"
         fill="none"
         stroke="currentColor"
         stroke-miterlimit="10"
         stroke-width="8.46667"
         id="path1-8"
         style="stroke:#689d6a;stroke-opacity:1" /></g><g
       id="g27"
       transform="matrix(0.71428453,0,0,0.71428453,197.30405,5.0081837)"><rect
         style="fill:#3c3836;fill-opacity:1;stroke:none;stroke-width:0.0289388;stroke-linecap:round;stroke-linejoin:round;stroke-dasharray:none;stroke-opacity:1"
         id="rect24"
         width="14.816669"
         height="14.816669"
         x="405.34164"
         y="0.39687639"
         rx="1.3229166"
         ry="1.3229166" /><g
         id="g24"
         transform="matrix(0.02893881,0,0,0.02893881,405.34165,0.39687662)"
         style="stroke:#689d6a;stroke-opacity:1"><path
           d="m 370,378 c 28.89,23.52 46,46.07 46,86 M 142,378 c -28.89,23.52 -46,46.06 -46,86 M 384,208 c 28.89,-23.52 32,-56.07 32,-96 M 128,206 C 99.11,182.48 96,151.94 96,112 m 368,176.13 h -80 m -256,0 H 48 M 256,192 v 256"
           fill="none"
           stroke="currentColor"
           stroke-linecap="round"
           stroke-linejoin="round"
           stroke-width="32"
           id="path1-1"
           style="stroke:#689d6a;stroke-opacity:1" /><path
           d="m 256,448 v 0 C 185.6,448 128,390.4 128,320 v -96.07 c 0,-65.07 57.6,-96 128,-96 v 0 c 70.4,0 128,25.6 128,96 V 320 c 0,70.4 -57.6,128 -128,128 z"
           fill="none"
           stroke="currentColor"
           stroke-linecap="round"
           stroke-linejoin="round"
           stroke-width="32"
           id="path2"
           style="stroke:#689d6a;stroke-opacity:1" /><path
           d="M 179.43,143.52 A 49.08,49.08 0 0 1 176,127.79 80,80 0 0 1 255.79,48 h 0.42 a 80,80 0 0 1 79.79,79.79 41.91,41.91 0 0 1 -3.12,14.3"
           fill="none"
           stroke="currentColor"
           stroke-linecap="round"
           stroke-linejoin="round"
           stroke-width="32"
           id="path3"
           style="stroke:#689d6a;stroke-opacity:1" /></g></g><g
       id="g26"
       transform="matrix(0.00854492,0,0,0.00854492,510.69309,-1.9171936)"><rect
         style="fill:none;fill-opacity:1;stroke:none;stroke-width:2.41905;stroke-linecap:round;stroke-linejoin:round;stroke-dasharray:none;stroke-opacity:1"
         id="rect26"
         width="1238.5522"
         height="1238.5522"
         x="56.394318"
         y="843.64282"
         rx="110.58504"
         ry="110.58504" /><path
         fill="none"
         stroke="currentColor"
         stroke-linecap="round"
         stroke-miterlimit="10"
         stroke-width="77.4095"
         d="M 249.91808,1230.6904 H 1101.4228 M 249.91808,1462.9189 H 1101.4228 M 249.91808,1695.1475 H 1101.4228"
         id="path1-0"
         style="stroke:#ebdbb2;stroke-opacity:1" /></g><g
       id="g28"
       transform="matrix(0.07812502,0,0,0.07812502,24.970047,3.1419264)"><rect
         style="fill:#3c3836;fill-opacity:1;stroke:none;stroke-width:0.264584;stroke-linecap:round;stroke-linejoin:round;stroke-dasharray:none;stroke-opacity:1"
         id="rect27"
         width="135.46666"
         height="135.46666"
         x="154.51666"
         y="27.516665" /><path
         d="m 255.30439,42.695809 a 8.4666667,8.4666667 0 0 0 -5.98752,-2.47915 h -69.87116 a 12.226396,12.226396 0 0 0 -12.22905,12.22904 v 85.608591 a 12.226396,12.226396 0 0 0 12.22905,12.22904 h 85.60858 a 12.266083,12.266083 0 0 0 12.22904,-12.22904 V 68.183119 a 8.4666667,8.4666667 0 0 0 -2.47915,-5.98752 z M 222.25,137.58333 A 16.933333,16.933333 0 1 1 239.18333,120.64999 16.912167,16.912167 0 0 1 222.25,137.58333 Z m 12.7,-59.266671 h -50.8 a 4.2333334,4.2333334 0 0 1 -4.23334,-4.23333 v -16.93334 a 4.2333334,4.2333334 0 0 1 4.23334,-4.23333 h 50.8 a 4.2333334,4.2333334 0 0 1 4.23333,4.23333 v 16.93334 a 4.2333334,4.2333334 0 0 1 -4.23333,4.23333 z"
         fill="none"
         stroke="currentColor"
         stroke-linecap="round"
         stroke-linejoin="round"
         stroke-width="8.46667"
         id="path1-4"
         style="stroke:#ebdbb2;stroke-opacity:1" /></g><g
       id="g30"
       transform="matrix(0.07812494,0,0,0.07812494,9.5084721,6.8626286)"><rect
         style="fill:#3c3836;fill-opacity:1;stroke:none;stroke-width:0.264584;stroke-linecap:round;stroke-linejoin:round;stroke-dasharray:none;stroke-opacity:1"
         id="rect28"
         width="135.46666"
         height="135.46666"
         x="149.22499"
         y="-20.108332" /><g
         id="g29"
         transform="matrix(0.26458334,0,0,0.26458334,149.22498,-20.108337)"
         style="stroke:#ebdbb2;stroke-opacity:1"><path
           d="m 64,192 v -72 a 40,40 0 0 1 40,-40 h 75.89 a 40,40 0 0 1 22.19,6.72 l 27.84,18.56 A 40,40 0 0 0 252.11,112 H 408 a 40,40 0 0 1 40,40 v 40"
           fill="none"
           stroke="currentColor"
           stroke-linecap="round"
           stroke-linejoin="round"
           stroke-width="32"
           id="path1-2"
           style="stroke:#ebdbb2;stroke-opacity:1" /><path
           d="M 479.9,226.55 463.68,392 a 40,40 0 0 1 -39.93,40 H 88.25 A 40,40 0 0 1 48.32,392 L 32.1,226.55 A 32,32 0 0 1 64,192 h 384.1 a 32,32 0 0 1 31.8,34.55 z"
           fill="none"
           stroke="currentColor"
           stroke-linecap="round"
           stroke-linejoin="round"
           stroke-width="32"
           id="path2-4"
           style="stroke:#ebdbb2;stroke-opacity:1" /></g></g><g
       id="g32"
       transform="matrix(0.078125,0,0,0.078125,-5.1263016,7.2760414)"><rect
         style="fill:#3c3836;fill-opacity:1;stroke:none;stroke-width:0.264584;stroke-linecap:round;stroke-linejoin:round;stroke-dasharray:none;stroke-opacity:1"
         id="rect30"
         width="135.46666"
         height="135.46666"
         x="133.34999"
         y="-25.4" /><g
         id="g31"
         transform="matrix(0.26458334,0,0,0.26458334,133.34987,-25.399966)"><path
           d="m 384,224 v 184 a 40,40 0 0 1 -40,40 H 104 A 40,40 0 0 1 64,408 V 168 a 40,40 0 0 1 40,-40 h 167.48"
           fill="none"
           stroke="currentColor"
           stroke-linecap="round"
           stroke-linejoin="round"
           stroke-width="32"
           id="path1-40"
           style="stroke:#ebdbb2;stroke-opacity:1" /><path
           d="M 459.94,53.25 A 16.06,16.06 0 0 0 436.72,52.69 L 424.35,65 a 8,8 0 0 0 0,11.31 l 11.34,11.32 a 8,8 0 0 0 11.34,0 l 12.06,-12 c 6.1,-6.09 6.67,-16.01 0.85,-22.38 z M 399.34,90 218.82,270.2 a 9,9 0 0 0 -2.31,3.93 L 208.16,299 a 3.91,3.91 0 0 0 4.86,4.86 l 24.85,-8.35 a 9,9 0 0 0 3.93,-2.31 L 422,112.66 A 9,9 0 0 0 422,100 l -9.95,-10 a 9,9 0 0 0 -12.71,0 z"
           id="path2-2"
           style="fill:#ebdbb2;fill-opacity:1" /></g></g><text
       xml:space="preserve"
       transform="matrix(0.26458334,0,0,0.26458334,3.9899159,1.8770736)"
       id="text32"
       style="font-style:normal;font-variant:normal;font-weight:normal;font-stretch:normal;font-size:24px;line-height:1.25;font-family:'JetBrains Mono';-inkscape-font-specification:'JetBrains Mono';white-space:pre;shape-inside:url(#rect32);display:inline;fill:#ebdbb2;fill-opacity:1"><tspan
         x="160"
         y="1381.5455"
         id="tspan54">[+]</tspan></text><g
       id="g33"
       transform="matrix(0.0546875,0,0,0.0546875,359.30415,21.232811)"><rect
         style="fill:#3c3836;fill-opacity:1;stroke:none;stroke-width:0.264584;stroke-linecap:round;stroke-linejoin:round;stroke-dasharray:none;stroke-opacity:1"
         id="rect33"
         width="135.46666"
         height="135.46666"
         x="203.2"
         y="76.199997" /><path
         d="m 256.11746,141.50055 c 2.33098,15.50988 -1.9394,23.98977 -13.99911,25.77307 -13.40114,1.98172 -18.923,-6.99559 -21.25398,-22.50546 -3.13531,-20.87034 4.23334,-33.85079 14.73994,-34.68688 9.56204,-0.75935 18.17952,15.91204 20.51315,31.41927 z m 6.25739,43.04506 c 0.82815,8.80534 -3.9317,17.0233 -11.1125,18.43088 -7.24958,1.41817 -15.53368,-4.33123 -17.22173,-13.01486 -1.68804,-8.68362 4.69636,-9.144 12.52009,-10.63889 7.82373,-1.4949 14.81402,-5.3975 15.81414,5.22287 z m 23.37594,-68.4477 c -2.33098,15.50987 1.9394,23.98977 13.99646,25.77306 13.40379,1.98173 18.923,-6.99558 21.25398,-22.50546 3.13796,-20.872975 -4.23333,-33.924865 -14.73729,-34.686865 -9.63084,-0.6985 -18.17952,15.909385 -20.51315,31.419265 z m -6.25739,43.04771 c -0.82815,8.80268 3.9317,17.02329 11.1125,18.43087 7.24958,1.41816 15.53368,-4.33123 17.22172,-13.01485 1.68805,-8.68363 -4.69635,-9.144 -12.52008,-10.64155 -7.82373,-1.49754 -14.81402,-5.3975 -15.81414,5.22553 z"
         fill="none"
         stroke="currentColor"
         stroke-miterlimit="10"
         stroke-width="8.46667"
         id="path1-24"
         style="stroke:#ebdbb2;stroke-opacity:1" /></g><g
       id="g35"
       transform="matrix(0.05468748,0,0,0.05468748,371.29309,24.416082)"><rect
         style="fill:#3c3836;fill-opacity:1;stroke:none;stroke-width:0.264584;stroke-linecap:round;stroke-linejoin:round;stroke-dasharray:none;stroke-opacity:1"
         id="rect34"
         width="135.46666"
         height="135.46666"
         x="196.84999"
         y="17.991665" /><g
         id="g34"
         transform="matrix(0.26458334,0,0,0.26458334,196.82838,17.99166)"
         style="stroke:#ebdbb2;stroke-opacity:1"><path
           d="m 112,111 v 290 c 0,17.44 17,28.52 31,20.16 L 390.9,272.79 c 12.12,-7.25 12.12,-26.33 0,-33.58 L 143,90.84 C 129,82.48 112,93.56 112,111 Z"
           fill="none"
           stroke="currentColor"
           stroke-miterlimit="10"
           stroke-width="32"
           id="path1-08"
           style="stroke:#ebdbb2;stroke-opacity:1" /><path
           fill="none"
           stroke="currentColor"
           stroke-linecap="round"
           stroke-miterlimit="10"
           stroke-width="32"
           d="M 400,80 V 432"
           id="path2-23"
           style="stroke:#ebdbb2;stroke-opacity:1" /></g></g><g
       id="g36"
       transform="matrix(0.0546875,0,0,0.0546875,394.51855,28.467511)"><rect
         style="fill:#3c3836;fill-opacity:1;stroke:none;stroke-width:0.264584;stroke-linecap:round;stroke-linejoin:round;stroke-dasharray:none;stroke-opacity:1"
         id="rect35"
         width="135.46666"
         height="135.46666"
         x="197.90833"
         y="-56.091663" /><rect
         x="223.30832"
         y="-30.691666"
         width="84.666664"
         height="84.666664"
         rx="6.3499999"
         ry="6.3499999"
         fill="none"
         stroke="currentColor"
         stroke-linejoin="round"
         stroke-width="8.46667"
         id="rect1-8"
         style="stroke:#cc241d;stroke-opacity:1" /></g><g
       id="g38"
       transform="matrix(0.0546875,0,0,0.0546875,383.51354,27.367837)"><rect
         style="fill:#3c3836;fill-opacity:1;stroke:none;stroke-width:0.264584;stroke-linecap:round;stroke-linejoin:round;stroke-dasharray:none;stroke-opacity:1"
         id="rect36"
         width="135.46666"
         height="135.46666"
         x="186.26666"
         y="-35.98333" /><g
         id="g37"
         transform="matrix(0.26458334,0,0,0.26458334,188.38332,-35.983315)"><path
           d="M 400,148 378.88,123.43 A 191.43,191.43 0 0 0 240,64 C 134,64 48,150 48,256 48,362 134,448 240,448 A 192.09,192.09 0 0 0 421.07,320"
           fill="none"
           stroke="currentColor"
           stroke-linecap="round"
           stroke-miterlimit="10"
           stroke-width="32"
           id="path1-6"
           style="stroke:#689d6a;stroke-opacity:1" /><path
           d="M 464,97.42 V 208 a 16,16 0 0 1 -16,16 H 337.42 c -14.26,0 -21.4,-17.23 -11.32,-27.31 L 436.69,86.1 C 446.77,76 464,83.16 464,97.42 Z"
           id="path2-8"
           style="fill:#689d6a;fill-opacity:1;stroke:none;stroke-opacity:1" /></g></g><text
       xml:space="preserve"
       transform="matrix(0.26458334,0,0,0.26458334,161.92498,39.97163)"
       id="text38"
       style="font-style:normal;font-variant:normal;font-weight:normal;font-stretch:normal;font-size:24px;line-height:1.25;font-family:Inter;-inkscape-font-specification:Inter;white-space:pre;shape-inside:url(#rect38);display:inline;fill:#ebdbb2;fill-opacity:1"><tspan
         x="800"
         y="36.926111"
         id="tspan55">Variable</tspan></text><text
       xml:space="preserve"
       transform="matrix(0.26458334,0,0,0.26458334,204.25831,39.97163)"
       id="text39"
       style="font-style:normal;font-variant:normal;font-weight:normal;font-stretch:normal;font-size:24px;line-height:1.25;font-family:Inter;-inkscape-font-specification:Inter;white-space:pre;shape-inside:url(#rect39);display:inline;fill:#ebdbb2;fill-opacity:1"><tspan
         x="800"
         y="36.926111"
         id="tspan56">Value</tspan></text><path
       style="fill:none;stroke:#928374;stroke-width:0.219779;stroke-linecap:butt;stroke-linejoin:miter;stroke-dasharray:none;stroke-opacity:1"
       d="m 412.74998,354.54165 0,-312.208319"
       id="path39"
       sodipodi:nodetypes="cc" /><path
       style="fill:none;stroke:#928374;stroke-width:0.140087;stroke-linecap:butt;stroke-linejoin:miter;stroke-dasharray:none;stroke-opacity:1"
       d="M 370.41665,52.916664 H 523.87497"
       id="path40"
       sodipodi:nodetypes="cc" /><text
       xml:space="preserve"
       transform="matrix(0.26458334,0,0,0.26458334,3.1749715,-0.40890655)"
       id="text40"
       style="font-style:normal;font-variant:normal;font-weight:normal;font-stretch:normal;font-size:24px;line-height:1.25;font-family:'JetBrains Mono';-inkscape-font-specification:'JetBrains Mono';white-space:pre;shape-inside:url(#rect40);display:inline;fill:#ebdbb2;fill-opacity:1"><tspan
         x="1400"
         y="241.54545"
         id="tspan57">x0</tspan></text><text
       xml:space="preserve"
       transform="matrix(0.26458334,0,0,0.26458334,3.1749715,10.174426)"
       id="text41"
       style="font-style:normal;font-variant:normal;font-weight:normal;font-stretch:normal;font-size:24px;line-height:1.25;font-family:'JetBrains Mono';-inkscape-font-specification:'JetBrains Mono';white-space:pre;shape-inside:url(#rect41);display:inline;fill:#ebdbb2;fill-opacity:1"><tspan
         x="1400"
         y="241.54545"
         id="tspan58">x1</tspan></text><text
       xml:space="preserve"
       transform="matrix(0.26458334,0,0,0.26458334,3.1749715,20.757759)"
       id="text42"
       style="font-style:normal;font-variant:normal;font-weight:normal;font-stretch:normal;font-size:24px;line-height:1.25;font-family:'JetBrains Mono';-inkscape-font-specification:'JetBrains Mono';white-space:pre;shape-inside:url(#rect42);display:inline;fill:#ebdbb2;fill-opacity:1"><tspan
         x="1400"
         y="241.54545"
         id="tspan59">x2</tspan></text><text
       xml:space="preserve"
       transform="matrix(0.26458334,0,0,0.26458334,45.508303,-0.40890655)"
       id="text43"
       style="font-style:normal;font-variant:normal;font-weight:normal;font-stretch:normal;font-size:24px;line-height:1.25;font-family:'JetBrains Mono';-inkscape-font-specification:'JetBrains Mono';white-space:pre;shape-inside:url(#rect43);display:inline;fill:#ebdbb2;fill-opacity:1"><tspan
         x="1400"
         y="241.54545"
         id="tspan60">20</tspan></text><text
       xml:space="preserve"
       transform="matrix(0.26458334,0,0,0.26458334,45.508303,10.174426)"
       id="text44"
       style="font-style:normal;font-variant:normal;font-weight:normal;font-stretch:normal;font-size:24px;line-height:1.25;font-family:'JetBrains Mono';-inkscape-font-specification:'JetBrains Mono';white-space:pre;shape-inside:url(#rect44);display:inline;fill:#ebdbb2;fill-opacity:1"><tspan
         x="1400"
         y="241.54545"
         id="tspan61">6</tspan></text><text
       xml:space="preserve"
       transform="matrix(0.26458334,0,0,0.26458334,45.508303,20.757759)"
       id="text45"
       style="font-style:normal;font-variant:normal;font-weight:normal;font-stretch:normal;font-size:24px;line-height:1.25;font-family:'JetBrains Mono';-inkscape-font-specification:'JetBrains Mono';white-space:pre;shape-inside:url(#rect45);display:inline;fill:#ebdbb2;fill-opacity:1"><tspan
         x="1400"
         y="241.54545"
         id="tspan62">40</tspan></text></g></svg>
